<svg width="24" height="24" viewBox="0 0 24 24" fill="none" xmlns="http://www.w3.org/2000/svg">
<path d="M11.5568 0.139319L0.284077 8.36789C0.10735 8.49597 -0.000867488 8.70414 5.23899e-06 8.91431V23.3143C4.16026e-05 23.6733 0.346478 24 0.727278 24H8.36364C8.74444 24 9.09088 23.6733 9.09091 23.3143V15.7714H14.9091V23.3143C14.9091 23.6733 15.2556 24 15.6364 24H23.2727C23.6535 24 24 23.6733 24 23.3143V8.91431C24 8.70414 23.8927 8.49597 23.7159 8.36789L12.4432 0.139319C12.1119 -0.0559241 11.8265 -0.036707 11.5568 0.139319ZM12 1.54289L22.5455 9.24646V22.6286H16.3636V15.0857C16.3636 14.7267 16.0172 14.4 15.6364 14.4H8.36364C7.98284 14.4 7.6364 14.7267 7.63637 15.0857V22.6286H1.45455V9.24646L12 1.54289Z" fill="white"/>
</svg>
